<svg xmlns="http://www.w3.org/2000/svg" xmlns:xlink="http://www.w3.org/1999/xlink" viewBox="0 0 508.94 792.31"><defs><style>.cls-1{fill:url(#linear-gradient);}.cls-2{fill:url(#linear-gradient-2);}.cls-3{fill:#1b81fc;}.cls-4{fill:url(#linear-gradient-3);}.cls-5{fill:#1871f9;}.cls-6{fill:#061c97;}.cls-7{fill:#ce37b0;}.cls-8{fill:#25a1ff;}.cls-9{fill:url(#linear-gradient-4);}.cls-10{fill:#00127f;}.cls-11{fill:#1b7ff9;}.cls-12{fill:#6bfcff;}.cls-13{fill:#0d2bb7;}.cls-14{fill:#0723a3;}.cls-15{fill:#1e9dfa;}</style><linearGradient id="linear-gradient" x1="583.55" y1="271.94" x2="523.7" y2="495.31" gradientUnits="userSpaceOnUse"><stop offset="0" stop-color="#5ad6ff"/><stop offset="0.09" stop-color="#52cfff"/><stop offset="0.3" stop-color="#43c4ff"/><stop offset="0.48" stop-color="#3ec0ff"/><stop offset="0.63" stop-color="#38aafd"/><stop offset="1" stop-color="#2976fa"/></linearGradient><linearGradient id="linear-gradient-2" x1="53.82" y1="352.51" x2="190.01" y2="418.93" gradientUnits="userSpaceOnUse"><stop offset="0.37" stop-color="#3ec0ff"/><stop offset="0.99" stop-color="#003ca8"/></linearGradient><linearGradient id="linear-gradient-3" x1="454.17" y1="204.76" x2="262.95" y2="730.14" gradientUnits="userSpaceOnUse"><stop offset="0.33" stop-color="#3ec0ff"/><stop offset="0.4" stop-color="#37b5fd"/><stop offset="0.52" stop-color="#2fa8fb"/><stop offset="0.68" stop-color="#2aa0fa"/><stop offset="1" stop-color="#299efa"/></linearGradient><linearGradient id="linear-gradient-4" x1="380.75" y1="199.98" x2="524.76" y2="283.13" gradientUnits="userSpaceOnUse"><stop offset="0" stop-color="#6ad7fd"/><stop offset="0.33" stop-color="#67d5fd"/><stop offset="0.61" stop-color="#5dd0fe"/><stop offset="0.86" stop-color="#4bc7fe"/><stop offset="1" stop-color="#3ec0ff"/></linearGradient></defs><g id="ears"><path class="cls-1" d="M521.86,355.09s29.32-49.44,47-65,23.3-16.24,25.77-15.18,6.7,4.94,0,34.94-9.88,36-12,79.06-1.77,61.41-13.41,77.65-32.83,32.12-32.83,32.12l-31.41-87.18Z" transform="translate(-89.26 -51.74)"/><path class="cls-2" d="M165.6,355.09s-29.32-49.44-47-65-23.29-16.24-25.76-15.18-6.71,4.94,0,34.94,9.88,36,12,79.06,1.76,61.41,13.41,77.65,32.82,32.12,32.82,32.12l31.42-87.18Z" transform="translate(-89.26 -51.74)"/></g><g id="shadow_in_ears" data-name="shadow in ears"><path class="cls-3" d="M527.53,422.65s0-.32.14-.92c.87-5.71,6-36.7,15.39-52.2,10.41-17.12,15-22.94,15-22.94s-12.35,24.35-15.27,45.17-4.47,29.94-3.61,40.95-1.77,14.11-1.77,14.11L528.59,435Z" transform="translate(-89.26 -51.74)"/></g><g id="FACE"><path class="cls-4" d="M164.59,385.76S147.18,176.35,342.94,178.24s179.3,207.52,179.3,207.52-1.18,13.65,11.76,42.36,19.76,72.47,22.12,88.47,16.94,92.47-37.65,155.76-176,78.36-176,78.36l-94.12-25.89s-61.76-24.23-87.17-61.64-28.94-68.47-32.12-88.24,2.12-59.29,5.65-76.23,6.7-40.24,17.29-68.47,12.35-26.83,12.71-32.83A93.61,93.61,0,0,0,164.59,385.76Z" transform="translate(-89.26 -51.74)"/></g><g id="nose"><path class="cls-5" d="M368.14,431.23a38.57,38.57,0,1,1-52.43,0,45.49,45.49,0,1,0,52.43,0Z" transform="translate(-89.26 -51.74)"/></g><g id="mouth"><path class="cls-6" d="M219.18,496.82c24,13.2,67.4,32.54,122.74,33.18,15.6.18,39.32.27,67.84-8.47,0,0,11.4-3.49,63.3-26.82h0s4.47-1.65,6.82,4c3.95,9.47-4.7,25.64-4.7,25.64-20.7,37.8-45.42,55.53-45.42,55.53-10.44,7.5-40.4,28.36-84.47,28.88-6.19.07-52.8-.06-92.8-32.82-9.77-8-19-17.27-33.08-38.88-6.59-10.12-12.7-23.77-13.88-34.35-.13-1.15-.36-3.55,1.07-5.25C209.71,493.77,218,496.42,219.18,496.82Z" transform="translate(-89.26 -51.74)"/></g><g id="tongue"><path class="cls-7" d="M250.83,574.56s26.93-22.68,50.93-21.27a89.21,89.21,0,0,1,41.41,13.42c6.48-4.61,23-14.93,44.24-13.48,17.1,1.17,31,9.53,32.47,10.42,0,0,1.1.67,16.31,10.91h0s-38.2,36.26-93,34.2S250.83,574.56,250.83,574.56Z" transform="translate(-89.26 -51.74)"/></g><g id="cap"><path class="cls-6" d="M320.59,179a22.88,22.88,0,0,1,8-14.87c5.74-4.62,12.09-4.67,15.76-4.7,4,0,11.1-.1,16.94,5.17s6.69,12.71,6.83,14.7c-7.81-.64-16.22-1-25.18-1C335.05,178.22,327.58,178.5,320.59,179Z" transform="translate(-89.26 -51.74)"/><path class="cls-6" d="M335.58,160.47a76.23,76.23,0,0,0-15-29.88,56,56,0,0,0-16.28-14.08c-4.69-2.62-10.54-4.19-21-5.69-22.23-3.17-33.88-3.88-44.82-12.7s-14.12-15.18-14.12-15.18,14.83,2.47,26.12-3.88,34.24-29.3,61.06-27.18,39.88,10.94,46.94,24.71c12,23.46,7.59,47.84,6,54.7A87.3,87.3,0,0,1,352,160a42.88,42.88,0,0,0-7.67-.57A42.09,42.09,0,0,0,335.58,160.47Z" transform="translate(-89.26 -51.74)"/></g><g id="shadows"><path class="cls-8" d="M485.39,392.65s-1,44.82-42.7,55.59-60-9.71-64.45-15,1.42-6.87,1.42-6.87,8.75,9.2,17.35,12.33,16.08,5.88,34.47,4.53,32.88-17,35-19.83,7.92-10.61,9.25-18.12a110.68,110.68,0,0,0,1.54-14.07Z" transform="translate(-89.26 -51.74)"/><path class="cls-9" d="M390.37,184.94a109.56,109.56,0,0,1,9.75,13.41c4.23,7.06-1.41,7.41,8.47,17.65s13.08,11.65,15.71,17.29,5.82,6.71,12.88,10.59,3.17,2.83,7.76,7.06,25.15,13.41,32.34,25.06,13.9,8.82,19.9,14.12,4.23,10.94,7.76,13.41,8.05,0,8.05,0-12.64-48-39.11-73.41S433,197.88,424.51,194.41s-34.14-11.1-34.14-11.1Z" transform="translate(-89.26 -51.74)"/><path class="cls-10" d="M259.9,107.29s12.28-7.41,25.51-7.41,30.18,5.83,38.12,15,8,33.6,8,33.6-9.42-20.64-20-27.12-8.41-7.4-20.85-9.33-16.69-2.49-19.9-3S259.9,107.29,259.9,107.29Z" transform="translate(-89.26 -51.74)"/></g><g id="beard"><path class="cls-11" d="M293.76,627.18s28.23,10.35,49.41,9.88,52.48-9.88,52.48-9.88-16.52,24.7-51.79,25.41S293.76,627.18,293.76,627.18Z" transform="translate(-89.26 -51.74)"/><path class="cls-6" d="M235.29,475.41s-19.41-12.36-37-11S158.71,486,147.41,528.35s-4.23,101.95-4.23,101.95,11,30.93,29.7,46.94S203.68,706.3,237.4,720s52.42,22.21,60.72,28.91,21,19.59,22.59,37.06-3.36,25.24-13.77,23.82S297.59,786,297.59,786s-15.18,11.12-9.35,34.41,30.7,23.65,34.05,23.65,33-2.47,39.71-33.18,9.11-45.66,22.24-58.76,39.44-21.42,39.44-21.42,38.46-12.32,60.3-28.91,29.72-24.68,42.19-39.06,20.3-36,20.3-36,2.53-53.63,0-73.52-14-53.42-28.12-71.42-30.88-18.23-38.47-17.41-31.41,11.41-31.41,11.41,30-2.47,40.59,1.77,14.47,8.82,21.53,21.18,20.65,55.76,15,96.17-31.94,67.94-48,77.3-39.53,26.64-80.65,32.64-81.53,6.36-114.18-.88-76.41-24.7-97.94-54-25.23-60-24.35-77.47,1.59-41.12,7.77-56.65,14.29-27.35,19.94-32.64,13.86-8.3,17.25-8.3S235.29,475.41,235.29,475.41Z" transform="translate(-89.26 -51.74)"/></g><g id="eyes"><ellipse class="cls-12" cx="177" cy="341.7" rx="55.5" ry="50.56"/><ellipse class="cls-12" cx="332.52" cy="341.7" rx="55.5" ry="50.56"/><ellipse class="cls-13" cx="327.27" cy="344.17" rx="26.16" ry="32.03"/><ellipse class="cls-13" cx="182.25" cy="344.17" rx="26.16" ry="32.03"/><circle class="cls-12" cx="335.25" cy="344.17" r="6.97"/><circle class="cls-12" cx="190.15" cy="343.46" r="6.97"/><path class="cls-14" d="M202.65,385.82v6.83s34.76-6.6,55.23-6.83,30.53.65,39.53,2.42,27.41,6,27.41,6l-.41-8.42s-27.88-12-60.88-10.63-30.52,2.27-37.87,4S202.65,385.82,202.65,385.82Z" transform="translate(-89.26 -51.74)"/><path class="cls-14" d="M485.39,385.82v6.83s-34.76-6.6-55.23-6.83-30.53.65-39.53,2.42-27.41,6-27.41,6l.42-8.42s27.87-12,60.87-10.63,30.52,2.27,37.87,4S485.39,385.82,485.39,385.82Z" transform="translate(-89.26 -51.74)"/><path class="cls-15" d="M424.51,375.19a178.45,178.45,0,0,0-60.87,10.63,68.13,68.13,0,0,1-.42-7.47c0-35.8,27.44-64.82,61.29-64.82s61.3,29,61.3,64.82a68.13,68.13,0,0,1-.42,7.47A178.46,178.46,0,0,0,424.51,375.19Z" transform="translate(-89.26 -51.74)"/><path class="cls-15" d="M263.53,375.19a178.5,178.5,0,0,1,60.88,10.63,70.72,70.72,0,0,0,.41-7.47c0-35.8-27.44-64.82-61.29-64.82s-61.29,29-61.29,64.82a70.72,70.72,0,0,0,.41,7.47A178.5,178.5,0,0,1,263.53,375.19Z" transform="translate(-89.26 -51.74)"/></g><g id="eye_brow" data-name="eye brow"><path class="cls-6" d="M188,319.06s-6.12-6.24-.94-18,22-38.47,49.29-44.71,52.24.12,61.41,5.06,25.89,18.12,22,30.94-14.58,9.06-14.58,9.06-21.89-12-47.42-11.29-33.76,4.94-42.94,10.59-18.47,17.05-21.88,18.35S188,319.06,188,319.06Z" transform="translate(-89.26 -51.74)"/><path class="cls-6" d="M499.76,319.06s6.12-6.24.95-18-22-38.47-49.3-44.71-52.23.12-61.41,5.06-25.88,18.12-22,30.94,14.59,9.06,14.59,9.06,21.88-12,47.41-11.29,33.76,4.94,42.94,10.59,18.47,17.05,21.88,18.35S499.76,319.06,499.76,319.06Z" transform="translate(-89.26 -51.74)"/></g></svg>